<?xml version="1.0" encoding="UTF-8"?>
<svg id="Layer_2" data-name="Layer 2" xmlns="http://www.w3.org/2000/svg" viewBox="0 0 755.56 692">
  <defs>
    <style>
      .cls-1 {
        fill: none;
      }

      .cls-2, .cls-3 {
        fill: #7db092;
      }

      .cls-4 {
        font-size: 68.68px;
      }

      .cls-5 {
        font-size: 17.17px;
      }

      .cls-3 {
        font-family: SourceSerifRoman-Semibold, 'Source Serif Variable';
        font-variation-settings: 'wght' 600;
        font-weight: 600;
      }
    </style>
  </defs>
  <g id="Layer_1-2" data-name="Layer 1">
    <g id="Mint">
      <rect class="cls-1" width="755.56" height="692"/>
      <path class="cls-2" d="M368.16,51.38c-.13-.68-4.69-.37-7.57-.16-31.39,2.31-49.4,3.63-74.18,12.07-4.51,1.54-8.06,2.91-10.29,3.79-59.18,23.38-105.02,73.62-105.02,73.62-36.3,39.78-52.89,80.01-59.55,98.53-29.35,81.65-13.67,153.18-5.95,180.81,4.83,17.31,17.62,57.06,48.72,99.07,13.76,18.59,55.09,72.91,132.09,102.86,13.29,5.17,112.78,42.09,220.33-3.25,54.91-23.15,88.61-57.91,99.07-69.29,37.4-40.72,56.54-86.33,55.22-87.16-.64-.4-6.35,9.46-17.86,23.28-19.79,23.74-39.24,38.15-49.26,45.47-14.51,10.6-46.32,33.41-94.2,46.01-55.33,14.57-101.55,7.48-121.93,3.25-15.89-3.3-67.8-15.59-118.43-57.92-35.08-29.33-54.07-60.14-61.17-72.54-12.35-21.56-32.08-63.09-34.65-118.56-.43-9.23-1.59-45.08,11.37-89.32,7.03-23.99,23.04-66.94,59.55-108.27,8.98-10.17,28.34-31.75,59.01-50.35,13.7-8.31,32.12-19.48,56.3-25.98,4.98-1.34,18.63-4.75,18.41-5.95Z"/>
      <path class="cls-2" d="M540.51,272.46c-.97-.88-2.2-.86-6.23-.41-16.46,1.86-25.78,4.53-25.78,4.53-6.69,1.92-12.12,3.47-19.42,6.5-5.2,2.15-12.99,5.42-22.06,11.44-3.78,2.5-11.1,7.42-18,14.82-16.08,17.25-19.95,37.4-22.33,36.66-.62-.19-.56-1.6-.54-7.5,0,0,.04-9.8-.07-19.15-.07-6.59.66-13.17.54-19.76-.02-.93-.06-2.78,1.02-4.6,1.68-2.83,4.83-3.51,8.12-4.67,0,0,5.68-2.01,11.77-6.23,5.05-3.49,7.42-7.9,10.35-13.33,1.83-3.39,5.66-10.67,6.56-20.57.81-8.87-1.54-11.12.95-17.73,1.89-5.04,4.82-7.89,3.59-9.68-1.24-1.79-5.54-.87-8.32-.27-5.87,1.26-9.96,3.86-11.1,4.6-5.19,3.37-12.68,8.24-18.41,17.73-5.91,9.79-6.43,18.68-9.27,18.54-.85-.04-1.42-.86-3.38-4.26-3.43-5.93-5.14-8.9-6.16-11.23-4.2-9.64-13.83-16.26-17.26-18.61-7.99-5.48-18.8-9.62-20.84-7.04-.5.63-.19,1.31.88,6.02,0,0,1.23,5.45,2.1,10.56.92,5.45.4,8.39.47,12.11.23,10.7,5.3,19.48,7.51,22.87,3.08,4.72,10.08,15.43,19.02,16.31,1.53.15,4.75.17,7.38,2.44,1.23,1.06,2.28,2.57,3.25,5.55,1.97,6.08,1.57,11.46,1.59,12.3.17,7.64.12,14.99-.1,22.48-.49,16.51.37,15.16,0,30.64-.45,19.03-.79,33.17-3.25,33.44-1.48.17-2.75-4.79-4.47-11.3-1.06-4.04-2.48-8.63-3.25-13.13-.57-3.32-.25-7.31-.2-15.23.06-9.56.41-11.42.07-16.31-.09-1.35-.49-6.55-2.91-16.31-1.7-6.87-4.05-16.34-8.19-25.04-6.83-14.36-16.74-22.82-24.97-29.84-15.62-13.33-30.27-19.08-42.5-23.75-3.61-1.38-29.63-11.18-32.41-6.23-.52.94.03,1.95,1.02,4.6,2.06,5.54,2.69,11.52,4.13,17.26,2.56,10.24,2.59,11.29,4.87,20.64,4.19,17.15,6.29,25.72,8.8,31.26,5.21,11.51,11.74,19.16,15.43,23.41,3.63,4.19,10.79,12.32,22.26,19.49,9.37,5.85,23.93,12.51,31.94,16.17,2.68,1.22,6.67,3.01,10.83,6.83,3.58,3.29,6.29,7.16,9.41,13.8,2.87,6.13,6.09,14.59,9.07,30.52,1.11,5.94,4.56,24.33,2.3,24.97-1.17.33-2.96-4.42-8.32-14.08-3.39-6.11-8.1-14.59-13.74-21.79-9.38-11.97-19.74-18.37-21.92-19.69-4.45-2.68-13.67-8.12-27.14-10.01-5.54-.78-17.26-1.73-30.79,2.77-8.19,2.72-13.26,6.18-21.65,11.91-6.43,4.38-17.48,11.92-16.04,15.7.82,2.14,4.72.64,13.26,3.79,4.71,1.74,8.36,3.98,12.79,6.7,4.23,2.6,5.79,3.93,8.32,5.62,7.48,4.98,14.4,7.05,20.23,8.8,8.88,2.66,16.49,4.94,26.12,3.92,9.04-.95,9.69-3.73,22.87-5.48,10.8-1.43,14.6-.12,16.92,1.08,4.36,2.27,6.55,5.79,9.61,10.83,4.91,8.1,7.17,15.58,8.39,20.44,3.22,12.8,3.44,23.87,3.18,30.79-.57,15.14-3.08,29.17-10.69,44.19-2.44,4.8-5.39,9.87-7.71,13.74-2.32,3.86-4.63,6.17-3.6,9.12.8,2.28,1.77,2.64,4.41,2.79,2.73.16,4.36-3.06,7.04-6.9,6.45-9.27,14-26.76,16.83-40.94,2.42-12.14,2.63-21.15,2.89-32.84.34-15.22-.42-36.73-2.89-57.02-.38-3.14-.99-10.35-1.26-20.37-.23-8.61.72-11.91,2.71-14.82,2.31-3.4,5.46-4.66,12.92-7.51,11.03-4.22,19.73-7.33,21.72-8.05,6.94-2.52,15.09-5.47,24.09-11.03,10.9-6.73,18.17-14.28,21.99-18.68,6.26-7.2,9.74-13.39,13.47-20.03,3.2-5.69,3.97-7.87,11.98-26.53,9.71-22.63,13.15-30.07,10.22-32.75ZM371.79,329.23c-10.3-2.76-21.08-9.11-29.92-15.1l28.29,12.79-17.44-24.72c-6.76-2.33-13.28-5.32-19.44-8.95l18.47,7.57-15.24-21.6c9.02,9.2,15.58,18.46,23.57,28.41l-7.15-29c4.13,9.78,6.1,20.12,8.42,30.62,7.18,10.79,14.91,20.86,21.66,31.99l-3.35-33.24c3.93,10.78,5.39,23.02,4.19,34.82,1.95,3.75,3.82,7.55,5.58,11.4l-17.64-25ZM354.7,417.64c-12.86,2.55-25.67,2.84-38.68,1.96l36.82-2.35-12.08-2.56-42.13-6.44c12.16.27,22.25.96,34.32,2.82l-24.43-10.63c9.64,2.69,18.98,6.45,27.82,11.15,10.74,1.71,20.62,3.86,31.15,7.03l-24.99-20.9c5.15,2.38,8.75,5.79,13.49,9.44,4.58,3.53,9.33,7.6,13.42,12.04,4.19,1.29,8.37,2.68,12.51,4.23l-27.24-5.78ZM479.7,331.67l-20.28,18.27,30.74-9.48c-9.51,5.78-21.5,9.25-32.68,11.23l-21,18.93c3.57-4.35,7.27-8.6,11.07-12.74.71-11.75,3.56-23.38,8.39-34.11l-7.61,33.4c6.79-7.38,12.07-12.73,19.56-19.4,1.94-7.72,5.95-16.32,9.55-23.42l-7.97,22c10.75-9.55,22.18-18.34,34.18-26.26l-22.44,20.22,23.42-10.45c-7.54,4.38-16.68,9.03-24.94,11.82Z"/>
      <path class="cls-2" d="M420.69,241.09c.69-.3,1.13-1.56,2.12-3.9.76-1.81,2.38-4.05,4.11-6.92,3.75-6.26,5.58-5.87,7.85-10.65,2.56-5.38,2.39-10.39,2.26-14.53-.26-8-3.88-8.84-4.53-17.77-.36-5.02.4-8.2-.71-8.57-1.57-.52-4.8,5.26-6.41,8.12-3.42,6.1-4.91,11.23-5.32,12.72-1.68,6.06-1.93,10.89-1.98,12.09-.48,11.27,3.1,19.35,2.17,19.67-.54.19-2.18-2.36-3.25-5.32-1.99-5.5-.6-8.55-.54-17.05.06-7.7-1.03-12.66-1.53-14.71-.29-1.16-2.61-10.38-4.6-10.2-1.55.14-1,5.77-4.15,16.42-1.6,5.42-2.49,6.45-2.71,10.05-.1,1.66-.35,6.6,2.17,11.78,2.32,4.78,4.33,4.29,9.11,10.92,1.44,1.99,2.4,3.62,3.14,4.87,1.18,2.01,1.86,3.4,2.82,2.98Z"/>
      <text class="cls-3" transform="translate(356.5 196.11)"><tspan class="cls-4" x="0" y="0" xml:space="preserve">{     }</tspan><tspan class="cls-5" x="123.63" y="0"> </tspan></text>
    </g>
  </g>
</svg>